<svg width="300" height="45" xmlns="http://www.w3.org/2000/svg">

 <metadata id="metadata7">image/svg+xml</metadata>
 <g>
  <title>background</title>
  <rect fill="none" id="canvas_background" height="402" width="582" y="-1" x="-1"/>
 </g>
 <g>
  <title>Layer 1</title>
  <g font-size="40px" font-style="normal" font-weight="normal" fill="none" stroke="#3498db" stroke-width="1.55485" stroke-miterlimit="4" font-family="Sans" transform="matrix(1.30001,0,0,1.27273,57.0775,111.135) " id="text3758">
   <path fill="none" stroke="#3498db" stroke-width="1.55485" stroke-miterlimit="4" id="path3763" d="m-14.9889,-70.3158c0.2827,-0.2827 0.4241,-0.6175 0.4241,-1.0044c0,-0.3869 -0.1414,-0.7217 -0.4241,-1.0045c-0.2827,-0.2827 -0.6176,-0.4241 -1.0044,-0.4241c-2.5596,0 -4.9257,0.372 -7.0983,1.1161c-2.1726,0.7292 -4.1071,1.7262 -5.8035,2.991c-1.6816,1.2501 -3.4301,2.8795 -5.2456,4.8884c-0.2827,0.3125 -0.4241,0.6474 -0.4241,1.0045c0,0.3869 0.1414,0.7217 0.4241,1.0045c0.2828,0.2827 0.6176,0.4241 1.0045,0.4241c0.3571,0 0.692,-0.1414 1.0045,-0.4241c0.4017,-0.3572 0.9523,-0.8854 1.6518,-1.5849c0.6993,-0.6993 1.1979,-1.1904 1.4955,-1.4732c2.0387,-1.8452 4.0327,-3.1547 5.9821,-3.9285c1.9643,-0.7738 4.3006,-1.1607 7.009,-1.1608c0.3868,0.0001 0.7217,-0.1413 1.0044,-0.4241m11.8527,-5.4241c-0.00004,1.4137 -0.14885,2.8498 -0.44643,4.3081c-0.68456,3.3333 -2.06105,6.183 -4.12946,8.5491c-2.05361,2.3661 -4.70981,4.3601 -7.96871,5.9821c-3.1846,1.6072 -6.4435,2.4107 -9.7768,2.4107c-2.2024,0 -4.3304,-0.3497 -6.384,-1.0491c-0.2232,-0.0744 -0.8779,-0.3869 -1.9642,-0.9375c-1.0864,-0.5506 -1.8006,-0.8259 -2.1429,-0.8259c-0.2381,0 -0.5357,0.2381 -0.8929,0.7143c-0.3422,0.4762 -0.677,0.997 -1.0044,1.5625c-0.3125,0.5655 -0.6994,1.0863 -1.1607,1.5625c-0.4613,0.4762 -0.9078,0.7143 -1.3393,0.7143c-0.4465,0 -0.8259,-0.0818 -1.1384,-0.2455c-0.3125,-0.1637 -0.5432,-0.3423 -0.692,-0.5357c-0.1488,-0.1935 -0.3497,-0.506 -0.6027,-0.9375c-0.0297,-0.0596 -0.0744,-0.1414 -0.1339,-0.2456c-0.0595,-0.1041 -0.1042,-0.1786 -0.1339,-0.2232c-0.0149,-0.0446 -0.0372,-0.1116 -0.067,-0.2009c-0.0149,-0.1042 -0.0223,-0.2083 -0.0223,-0.3125c0,-0.5208 0.2307,-1.064 0.692,-1.6295c0.4613,-0.5803 0.9672,-1.0714 1.5178,-1.4732c0.5506,-0.4017 1.0566,-0.8184 1.5179,-1.25c0.4613,-0.4315 0.6919,-0.7887 0.6919,-1.0714c0,-0.0595 -0.1041,-0.3423 -0.3125,-0.8482c-0.2083,-0.506 -0.3273,-0.8333 -0.3571,-0.9822c-0.1339,-0.7589 -0.2009,-1.5327 -0.2009,-2.3214c0,-1.7113 0.3199,-3.3482 0.9598,-4.9107c0.6548,-1.5625 1.5402,-2.9315 2.6563,-4.1071c1.1309,-1.1905 2.4032,-2.2247 3.8169,-3.1027c1.4137,-0.8929 2.9316,-1.6071 4.5536,-2.1429c0.8185,-0.2678 1.8973,-0.4538 3.2366,-0.558c1.3393,-0.119 2.6711,-0.186 3.9956,-0.2009c1.3392,-0.0297 2.6711,-0.0744 3.9955,-0.1339c1.3244,-0.0744 2.5372,-0.253 3.6384,-0.5357c1.116,-0.2976 1.9642,-0.7217 2.5446,-1.2724c0.1488,-0.1487 0.36458,-0.3645 0.64735,-0.6473c0.29759,-0.2976 0.5208,-0.5059 0.66964,-0.625c0.14878,-0.1339 0.34967,-0.2827 0.60268,-0.4464c0.25294,-0.1786 0.5208,-0.2976 0.80357,-0.3572c0.29759,-0.0743 0.62497,-0.1115 0.98215,-0.1116c0.58032,0.0001 1.10115,0.3423 1.5625,1.0268c0.47615,0.6846 0.83329,1.5179 1.07142,2.5c0.23806,0.9822 0.41663,1.9048 0.53572,2.7679c0.11901,0.8631 0.17853,1.5774 0.17857,2.1428"/>
  </g>
  <text stroke="null" transform="matrix(2.9451202728236665,0,0,2.0904115723123855,-159.788212338598,-28.80055183856648) " xml:space="preserve" text-anchor="start" font-family="Helvetica, Arial, sans-serif" font-size="24" id="svg_1" y="33.68525" x="75.652415" stroke-opacity="null" stroke-width="0" fill="#5B9BA2">OMDS</text>
 </g>
</svg>