<?xml version="1.0" encoding="UTF-8" standalone="no"?>
<!-- Created with Inkscape (http://www.inkscape.org/) -->
<svg id="svg2" xmlns:rdf="http://www.w3.org/1999/02/22-rdf-syntax-ns#" xmlns="http://www.w3.org/2000/svg" height="20" width="107" version="1.1" xmlns:cc="http://creativecommons.org/ns#" xmlns:dc="http://purl.org/dc/elements/1.1/">
 <metadata id="metadata7">
  <rdf:RDF>
   <cc:Work rdf:about="">
    <dc:format>image/svg+xml</dc:format>
    <dc:type rdf:resource="http://purl.org/dc/dcmitype/StillImage"/>
    <dc:title/>
   </cc:Work>
  </rdf:RDF>
 </metadata>
 <g id="layer1" transform="translate(0,-1032)">
  <path id="rect3113" d="m17 0v20h2v-20h-2zm72 0v2h2v-2h-2zm0 4v16h2v-16h-2zm-81 1c-4.4183 0-8 3.36-8 7.5s3.5817 7.5 8 7.5c3.064 0 5.718-1.63 7.062-4h-2.437c-1.101 1.22-2.761 2-4.625 2-3.3137 0-6-2.46-6-5.5s2.6863-5.5 6-5.5c1.864 0 3.524 0.78 4.625 2h2.437c-1.344-2.37-3.998-4-7.062-4zm21 0c-4.418 0-8 3.36-8 7.5s3.582 7.5 8 7.5c3.478 0 6.429-2.09 7.531-5h-2.187c-0.992 1.78-3.013 3-5.344 3-3.13 0-5.693-2.2-5.969-5h10.969 0.969 2c0.011-0.16 0.031-0.33 0.031-0.5 0-4.14-3.582-7.5-8-7.5zm17 0c-4.418 0-8 3.36-8 7.5s3.582 7.5 8 7.5c2.388 0 4.534-0.981 6-2.531v2.531h2v-7.5-5.5-2h-8zm10 0v15h2v-13h5v-2h-5-2zm9 0v15h2v-13h5 0.5c1.381 0 2.5 0.9 2.5 2v1.5 1.5 8h2v-8-1.5c0-1.93 1.791-3.5 4-3.5s4 1.57 4 3.5v9.5h2v-9.5c0-3.04-2.686-5.5-6-5.5-1.864 0-3.524 0.78-4.625 2-0.778-1.2-2.209-2-3.875-2h-0.5-5-2zm28 0v15h2v-13h5 1c2.21 0 4 1.57 4 3.5v9.5h2v-9.5c0-3.04-2.69-5.5-6-5.5h-1-5-2zm-64 2c2.74 0 5.032 1.7 5.75 4h-11.5c0.718-2.3 3.01-4 5.75-4zm17 0h6v5h-0.031c0.016 0.17 0.031 0.33 0.031 0.5 0 3.04-2.686 5.5-6 5.5s-6-2.46-6-5.5 2.686-5.5 6-5.5z" transform="translate(0,1032)" fill="#fff"/>
 </g>
</svg>
